<?xml version="1.0" standalone="no"?>
<!DOCTYPE svg PUBLIC "-//W3C//DTD SVG 20010904//EN"
 "http://www.w3.org/TR/2001/REC-SVG-20010904/DTD/svg10.dtd">
<svg version="1.0" xmlns="http://www.w3.org/2000/svg"
 width="894.000000pt" height="735.000000pt" viewBox="0 0 894.000000 735.000000"
 preserveAspectRatio="xMidYMid meet">
<metadata>
Created by potrace 1.10, written by Peter Selinger 2001-2011
</metadata>
<g transform="translate(0.000000,735.000000) scale(0.100000,-0.100000)"
fill="#5d4954" stroke="none">
<path d="M3885 7031 c-37 -16 -51 -40 -101 -173 -8 -24 -22 -56 -30 -71 -8
-16 -14 -35 -14 -44 0 -8 -6 -27 -13 -41 -8 -15 -21 -42 -30 -60 -9 -19 -17
-39 -17 -47 0 -13 -43 -118 -110 -271 -27 -62 -24 -88 11 -92 32 -4 84 44 98
91 19 62 42 122 52 131 5 6 9 18 9 28 0 9 7 34 16 55 34 79 42 99 59 143 9 25
23 58 31 73 8 16 14 35 14 44 0 8 6 27 13 41 8 15 22 45 31 67 10 22 24 53 32
68 29 59 9 82 -51 58z"/>
<path d="M2130 7015 c0 -7 -3 -20 -6 -29 -7 -17 26 -48 59 -56 19 -5 23 -14
28 -75 7 -85 -5 -106 -42 -77 -57 45 -155 38 -213 -13 -68 -61 -80 -95 -80
-225 0 -128 13 -167 73 -225 29 -27 37 -29 106 -29 71 0 76 1 109 33 38 37 62
36 68 -1 3 -22 8 -23 86 -26 l83 -3 -3 43 c-3 40 -5 43 -35 46 l-33 3 0 324 0
324 -100 0 c-78 0 -100 -3 -100 -14z m62 -322 c16 -14 18 -33 18 -142 l-1
-126 -35 -22 c-24 -16 -51 -23 -83 -23 -56 0 -81 22 -99 86 -29 100 8 225 71
246 33 11 108 0 129 -19z"/>
<path d="M5470 6921 c-36 -4 -75 -13 -87 -19 -12 -7 -31 -12 -42 -12 -48 0
-289 -127 -368 -195 -7 -5 -18 -14 -25 -20 -7 -5 -62 -53 -123 -106 -150 -132
-289 -278 -484 -509 -126 -149 -145 -173 -225 -280 -44 -58 -85 -110 -92 -116
-8 -6 -14 -14 -14 -18 0 -3 -7 -14 -15 -23 -27 -31 -195 -263 -195 -269 0 -3
-13 -23 -30 -44 -16 -21 -30 -43 -30 -48 0 -6 -6 -15 -12 -19 -15 -9 -33 -37
-48 -70 -5 -13 -14 -23 -19 -23 -5 0 -11 -8 -15 -17 -3 -10 -14 -30 -23 -45
-10 -15 -38 -59 -63 -98 -25 -39 -53 -83 -62 -98 -10 -15 -22 -36 -28 -47 -6
-11 -19 -33 -30 -50 -11 -16 -24 -39 -30 -50 -6 -11 -19 -33 -30 -50 -11 -16
-24 -39 -30 -50 -6 -11 -19 -33 -30 -50 -11 -16 -23 -37 -27 -45 -8 -17 -89
-158 -103 -180 -6 -8 -14 -24 -19 -35 -5 -11 -21 -37 -35 -58 -14 -21 -26 -44
-26 -52 0 -8 -5 -17 -11 -20 -5 -4 -15 -17 -20 -28 -5 -12 -18 -35 -29 -52
-11 -16 -24 -39 -30 -50 -5 -11 -14 -28 -20 -37 -5 -10 -15 -26 -20 -35 -6
-10 -15 -27 -20 -38 -45 -90 -65 -108 -160 -148 -19 -8 -51 -22 -70 -30 -94
-41 -109 -47 -122 -47 -8 0 -18 -4 -23 -9 -10 -9 -163 -65 -220 -81 -16 -5
-43 -13 -60 -18 -30 -11 -97 -29 -185 -52 -25 -6 -74 -15 -110 -20 -36 -5 -87
-14 -115 -20 -76 -17 -407 -14 -475 5 -30 8 -67 15 -81 15 -14 0 -34 7 -45 15
-10 8 -26 15 -35 15 -9 0 -36 11 -60 25 -24 14 -51 28 -59 31 -77 35 -250 252
-250 314 0 9 -7 26 -16 39 -14 20 -16 53 -16 215 2 184 11 265 44 361 5 17 13
44 17 60 8 29 53 134 71 165 5 8 19 35 31 59 73 144 311 404 499 544 58 42
110 81 115 85 6 4 51 32 100 61 50 29 97 56 105 61 15 10 147 74 185 90 49 22
104 43 160 61 33 11 67 24 76 29 9 4 37 11 63 15 25 4 48 11 51 15 3 5 29 11
58 15 28 4 63 12 77 17 35 13 140 27 315 40 117 9 170 9 240 -1 50 -7 115 -16
145 -21 141 -19 208 -48 287 -125 77 -74 81 -99 24 -144 -21 -17 -46 -31 -54
-31 -9 0 -18 -4 -21 -9 -4 -5 -24 -12 -46 -16 -50 -9 -59 -22 -23 -36 36 -13
218 -1 255 17 15 8 35 14 46 14 10 0 36 15 57 33 33 29 38 38 38 77 0 40 -5
48 -44 83 -24 22 -53 43 -64 48 -11 5 -28 13 -37 19 -10 5 -26 15 -35 20 -10
6 -25 13 -33 16 -8 4 -40 18 -70 32 -77 35 -146 51 -290 69 -255 31 -601 10
-770 -47 -14 -5 -41 -12 -60 -15 -44 -9 -130 -34 -150 -44 -9 -5 -31 -12 -50
-16 -19 -4 -41 -11 -50 -16 -8 -5 -44 -20 -80 -35 -152 -61 -326 -156 -476
-259 -62 -43 -151 -110 -164 -125 -3 -3 -45 -41 -93 -84 -245 -220 -439 -508
-523 -776 -9 -30 -22 -71 -30 -90 -7 -19 -16 -62 -19 -95 -4 -33 -9 -78 -12
-100 -8 -58 -4 -130 15 -255 12 -77 42 -167 74 -220 5 -8 11 -23 14 -32 4 -10
10 -18 13 -18 4 0 22 -20 40 -45 29 -40 123 -121 161 -138 8 -4 35 -18 59 -32
24 -14 51 -25 60 -25 9 0 25 -6 36 -14 11 -7 36 -16 55 -19 19 -3 53 -10 75
-16 51 -13 453 -15 469 -2 6 5 47 14 91 20 77 9 102 14 225 48 90 25 243 74
277 89 17 8 36 14 41 14 6 0 23 6 39 14 29 14 69 32 138 61 41 17 113 53 199
99 27 14 51 24 53 22 7 -6 -17 -58 -47 -103 -17 -24 -30 -50 -30 -58 0 -8 -5
-17 -11 -20 -5 -4 -14 -17 -20 -28 -5 -12 -13 -29 -18 -37 -5 -8 -12 -22 -15
-30 -4 -8 -15 -28 -26 -45 -11 -16 -23 -37 -26 -45 -3 -8 -8 -19 -10 -25 -2
-5 -13 -23 -24 -40 -10 -16 -31 -52 -45 -80 -14 -27 -42 -77 -61 -110 -19 -33
-39 -69 -44 -80 -6 -11 -19 -33 -30 -50 -11 -16 -24 -39 -30 -50 -6 -11 -19
-33 -30 -50 -11 -16 -24 -39 -30 -50 -6 -11 -19 -33 -30 -50 -11 -16 -23 -37
-27 -45 -4 -8 -19 -33 -33 -55 -14 -22 -30 -49 -37 -60 -7 -11 -28 -46 -47
-78 -20 -32 -36 -63 -36 -68 0 -16 -27 -10 -76 16 -26 14 -51 25 -56 25 -6 0
-24 6 -41 14 -39 16 -96 31 -202 54 -151 32 -471 17 -552 -26 -12 -7 -31 -12
-42 -12 -10 0 -32 -6 -48 -14 -15 -7 -44 -20 -63 -29 -64 -28 -125 -58 -155
-78 -16 -10 -39 -23 -50 -29 -36 -18 -60 -35 -68 -47 -4 -7 -13 -13 -19 -13
-29 0 -308 -267 -308 -295 0 -4 -12 -24 -28 -44 -35 -47 -46 -65 -77 -128 -15
-29 -30 -55 -36 -58 -5 -4 -9 -16 -9 -29 0 -12 -7 -31 -15 -42 -8 -10 -15 -32
-15 -47 0 -15 -7 -44 -15 -64 -21 -50 -20 -210 2 -277 9 -28 23 -66 32 -83 21
-43 89 -122 115 -134 12 -5 28 -13 36 -18 65 -38 255 -49 350 -22 100 30 299
120 321 147 6 8 16 14 21 14 45 0 436 361 537 496 25 32 50 64 56 69 6 6 68
87 138 180 70 94 131 175 137 182 5 7 10 16 10 21 0 5 8 18 17 30 10 12 38 53
62 92 25 38 50 70 57 70 7 0 33 -13 57 -30 25 -16 47 -30 50 -30 4 0 25 -13
49 -29 24 -16 59 -37 78 -47 36 -20 176 -110 197 -129 27 -23 40 -32 74 -53
19 -12 47 -32 62 -46 14 -13 53 -45 86 -70 33 -25 66 -52 73 -59 7 -7 72 -62
143 -122 72 -60 135 -114 140 -120 6 -6 30 -27 55 -45 25 -18 50 -39 55 -45 6
-6 53 -47 106 -91 53 -44 114 -97 136 -117 22 -21 64 -55 94 -77 29 -22 55
-44 58 -48 4 -4 35 -30 71 -57 36 -26 70 -53 75 -59 15 -18 164 -129 208 -155
20 -12 37 -27 37 -32 0 -5 5 -9 11 -9 6 0 28 -12 48 -27 45 -35 70 -50 99 -63
12 -5 22 -13 22 -17 0 -5 19 -17 43 -28 23 -11 46 -25 50 -32 4 -7 16 -13 26
-13 10 0 24 -7 31 -15 7 -8 20 -15 30 -15 10 0 23 -7 30 -15 7 -8 20 -15 30
-15 10 0 23 -7 30 -15 7 -8 19 -15 27 -15 8 0 27 -6 41 -13 15 -8 42 -21 60
-30 19 -9 41 -17 51 -17 9 0 26 -7 37 -15 10 -8 27 -15 36 -15 10 0 32 -6 50
-14 18 -8 60 -22 93 -31 33 -9 81 -23 106 -31 26 -8 62 -14 80 -14 19 0 63 -7
98 -15 86 -21 449 -20 536 1 33 7 78 14 100 14 22 0 62 7 89 15 27 8 63 15 80
15 17 0 44 7 60 15 15 8 41 15 56 15 15 0 41 7 56 15 16 8 40 15 54 15 14 1
36 7 50 15 14 8 36 14 51 15 14 0 30 5 36 11 6 6 26 14 44 19 58 14 96 29 224
86 65 29 331 159 355 174 8 5 58 35 110 66 122 72 203 126 213 142 4 6 15 12
22 12 8 0 15 4 15 9 0 5 8 12 18 15 9 4 31 19 49 34 17 15 66 56 109 92 87 72
247 231 303 300 20 25 42 49 49 53 17 11 15 36 -3 43 -10 4 -38 -19 -82 -67
-129 -139 -216 -222 -328 -309 -38 -30 -72 -57 -75 -60 -19 -21 -319 -211
-365 -231 -11 -5 -28 -13 -37 -19 -36 -20 -55 -30 -128 -66 -41 -20 -101 -50
-133 -65 -31 -16 -66 -29 -76 -29 -10 0 -24 -7 -31 -15 -7 -8 -22 -15 -34 -15
-12 0 -26 -4 -32 -9 -5 -5 -25 -14 -44 -19 -19 -6 -48 -15 -65 -21 -16 -5 -57
-17 -90 -26 -33 -9 -81 -23 -106 -31 -26 -8 -61 -14 -77 -14 -17 0 -51 -6 -74
-14 -24 -8 -77 -17 -118 -20 -41 -3 -109 -9 -150 -15 -94 -13 -267 -13 -385 0
-49 5 -126 12 -170 15 -44 3 -92 10 -106 15 -15 6 -51 14 -80 18 -69 11 -145
30 -187 47 -18 8 -43 14 -56 14 -13 0 -29 7 -36 15 -7 8 -23 15 -35 15 -13 0
-36 6 -52 14 -35 17 -76 35 -178 77 -44 18 -87 38 -96 46 -8 7 -23 13 -31 13
-9 0 -21 7 -28 15 -7 8 -20 15 -30 15 -10 0 -23 7 -30 15 -7 8 -20 15 -30 15
-10 0 -20 7 -24 15 -3 8 -14 15 -25 15 -11 0 -23 5 -26 11 -4 5 -17 15 -28 20
-12 5 -35 18 -52 29 -16 11 -37 23 -45 27 -8 4 -41 25 -75 47 -33 23 -68 45
-77 51 -56 33 -407 290 -418 306 -3 4 -33 29 -67 56 -34 26 -97 76 -140 110
-298 238 -687 534 -793 605 -92 61 -232 142 -280 163 -25 10 -49 22 -54 26 -5
5 8 32 31 61 40 54 215 315 222 333 2 5 24 38 48 73 23 35 43 66 43 69 0 3 14
22 30 43 17 21 30 40 30 43 0 3 19 34 42 69 48 71 64 96 74 118 4 8 19 31 34
50 15 19 30 42 34 50 10 22 26 47 74 118 23 35 42 66 42 69 0 3 12 22 28 42
36 48 51 72 58 94 4 9 10 17 15 17 5 0 14 10 19 23 28 62 88 150 110 160 8 4
29 16 45 27 17 11 37 23 45 27 25 11 215 126 220 133 3 3 23 17 45 30 22 13
74 49 117 80 42 30 106 75 143 100 37 25 72 50 78 56 7 6 37 28 67 49 30 21
58 42 61 47 3 5 27 23 52 41 52 36 202 153 227 176 9 9 47 41 84 71 37 30 82
68 99 84 18 15 52 44 77 64 25 20 52 43 61 52 9 8 45 40 80 70 73 63 172 153
210 190 15 14 37 34 50 46 57 50 342 347 408 424 40 47 83 96 95 110 12 14 44
54 71 90 28 36 58 73 67 82 9 9 24 31 33 47 8 17 20 31 25 31 6 0 10 6 10 14
0 8 3 16 8 18 10 4 52 65 52 77 0 5 7 11 15 15 8 3 15 14 15 25 0 11 4 22 10
26 11 7 80 146 80 162 0 6 6 24 14 40 32 66 40 104 44 213 3 97 1 121 -15 150
-21 41 -53 73 -104 106 -43 27 -143 37 -249 25z m182 -116 c30 -21 38 -33 44
-71 8 -56 -1 -142 -20 -186 -8 -18 -17 -40 -20 -48 -3 -8 -10 -23 -16 -32 -10
-19 -14 -26 -51 -93 -11 -22 -35 -60 -52 -85 -17 -25 -45 -66 -63 -93 -18 -26
-39 -53 -46 -61 -24 -24 -53 -61 -69 -86 -28 -43 -115 -152 -246 -310 -83 -99
-93 -111 -208 -244 -136 -159 -756 -768 -854 -841 -18 -13 -51 -40 -72 -60
-22 -20 -70 -59 -107 -88 -37 -28 -71 -56 -77 -63 -11 -13 -228 -175 -295
-220 -25 -17 -80 -55 -123 -85 -43 -30 -86 -58 -95 -64 -9 -5 -19 -12 -22 -15
-20 -22 -73 -51 -86 -46 -11 4 -7 16 21 56 19 27 35 54 35 60 0 5 4 10 10 10
5 0 12 11 16 25 3 14 9 25 13 25 4 0 19 24 34 53 16 28 37 66 47 82 11 17 24
39 30 50 6 11 19 34 30 50 11 17 24 39 30 50 6 11 16 29 23 40 7 11 30 51 52
90 22 38 45 79 52 90 7 11 17 29 23 40 6 11 19 34 30 50 11 17 24 39 29 50 5
11 21 37 35 58 14 21 26 44 26 52 0 8 5 17 11 20 5 4 14 17 20 28 14 33 33 61
47 70 6 4 12 14 12 22 0 8 14 34 30 58 17 25 30 49 30 55 0 5 7 12 15 16 8 3
15 15 15 26 0 11 7 23 15 26 8 4 15 10 15 16 0 5 20 40 45 78 25 38 45 74 45
79 0 6 5 11 10 11 6 0 15 10 20 23 13 28 28 53 63 98 15 20 27 40 27 44 0 4
14 24 30 45 17 21 30 43 30 49 0 6 4 11 9 11 10 0 34 38 47 73 3 9 10 17 15
17 5 0 14 10 20 23 15 34 30 57 79 125 197 274 449 544 649 697 67 51 243 145
272 145 9 0 32 7 50 15 24 10 72 14 159 15 117 0 128 -2 162 -25z m-3913
-4230 c62 -8 118 -18 124 -22 6 -3 27 -10 46 -14 20 -4 52 -13 71 -20 19 -7
54 -19 78 -27 48 -17 51 -26 19 -64 -12 -16 -42 -58 -67 -94 -63 -92 -250
-347 -264 -359 -6 -5 -36 -39 -66 -74 -97 -114 -203 -222 -274 -280 -117 -95
-190 -151 -211 -162 -11 -5 -33 -18 -50 -28 -30 -20 -93 -51 -150 -76 -91 -39
-107 -45 -126 -45 -11 0 -33 -7 -50 -15 -21 -11 -60 -16 -134 -16 -103 -1
-105 0 -157 35 -97 64 -146 217 -103 319 8 20 15 51 15 69 0 18 7 42 15 52 8
11 15 30 15 42 0 12 7 27 15 34 8 7 15 23 15 36 0 12 5 26 11 29 5 4 14 17 20
28 25 60 135 201 215 278 65 62 211 177 244 192 8 4 29 16 45 26 17 11 50 29
75 41 43 21 60 29 140 63 83 36 216 63 325 66 28 0 101 -6 164 -14z"/>
<path d="M1790 6851 c0 -5 -10 -13 -22 -17 -13 -4 -36 -17 -53 -29 -16 -12
-68 -41 -115 -64 -47 -23 -92 -46 -100 -50 -8 -4 -28 -14 -45 -22 -22 -11 -31
-23 -33 -45 -3 -27 2 -32 45 -52 26 -12 55 -26 63 -31 8 -5 22 -12 30 -15 8
-3 22 -10 30 -15 8 -5 22 -12 30 -15 8 -4 29 -15 45 -26 17 -11 41 -25 55 -30
13 -6 27 -15 30 -20 3 -6 21 -13 39 -16 l34 -7 -5 47 c-6 50 -30 86 -58 86
-10 0 -23 7 -30 15 -7 8 -20 15 -29 15 -9 0 -25 7 -35 15 -11 8 -27 15 -36 15
-20 0 -63 44 -53 53 3 4 15 7 26 7 10 0 31 6 45 14 15 8 59 29 97 48 l70 34 3
57 c2 46 0 57 -13 57 -8 0 -15 -4 -15 -9z"/>
<path d="M4000 6801 c0 -43 4 -52 28 -68 46 -31 163 -83 185 -83 9 0 19 -5 22
-11 9 -13 -23 -49 -43 -49 -13 0 -26 -6 -99 -44 -17 -9 -38 -16 -45 -16 -33 0
-54 -52 -49 -117 1 -18 32 -16 61 4 38 27 95 58 222 120 105 52 117 61 118 85
0 21 -8 30 -42 48 -45 22 -67 34 -95 50 -10 6 -25 13 -33 16 -8 3 -22 10 -30
15 -8 5 -27 14 -42 20 -16 6 -28 15 -28 20 0 5 -6 9 -13 9 -7 0 -29 11 -49 25
-56 38 -68 34 -68 -24z"/>
<path d="M2650 6803 c-46 -6 -107 -48 -145 -102 -29 -41 -30 -47 -30 -151 0
-89 3 -111 18 -127 9 -11 17 -24 17 -29 0 -12 55 -64 95 -90 41 -26 182 -25
240 3 52 24 85 46 85 55 0 11 -32 48 -51 59 -17 9 -72 -12 -84 -32 -4 -5 -34
-9 -69 -9 -57 0 -65 3 -93 33 -18 17 -35 44 -38 60 -4 15 -11 30 -16 33 -29
17 21 24 177 24 l174 0 0 49 c0 76 -47 165 -104 199 -34 20 -117 32 -176 25z
m130 -101 c27 -21 49 -78 34 -92 -5 -4 -56 -10 -114 -12 -103 -3 -105 -3 -108
20 -4 30 21 68 61 93 38 23 88 20 127 -9z"/>
<path d="M2940 6781 c0 -42 19 -71 45 -71 26 0 40 -22 78 -125 8 -22 29 -73
46 -114 17 -40 31 -79 31 -85 0 -6 8 -30 18 -54 l17 -43 59 3 59 3 24 65 c14
36 28 77 32 91 5 14 13 34 19 45 5 10 17 37 25 59 54 147 58 153 100 157 30 3
32 6 35 46 l3 42 -130 0 -131 0 0 -26 c0 -36 17 -64 40 -64 25 0 25 -21 1 -74
-29 -65 -51 -138 -51 -173 0 -17 -4 -35 -10 -38 -14 -9 -50 55 -50 88 0 16 -6
41 -14 55 -15 31 -36 87 -43 120 -4 15 -1 22 10 22 25 0 47 29 47 61 l0 29
-130 0 c-122 0 -130 -1 -130 -19z"/>
<path d="M8360 6065 c-7 -8 -19 -15 -26 -15 -16 0 -183 -164 -239 -235 -21
-27 -44 -54 -50 -60 -17 -15 -225 -293 -225 -301 0 -3 -13 -23 -30 -44 -16
-21 -30 -41 -30 -45 0 -4 -12 -24 -27 -44 -37 -48 -52 -72 -59 -93 -4 -10 -10
-18 -15 -18 -5 0 -14 -10 -19 -22 -13 -30 -56 -103 -91 -156 -16 -24 -29 -49
-29 -56 0 -8 -7 -19 -15 -26 -8 -7 -15 -18 -15 -25 0 -7 -7 -15 -15 -19 -8 -3
-15 -14 -15 -24 0 -10 -5 -23 -11 -29 -11 -11 -25 -36 -94 -168 -14 -27 -35
-63 -45 -80 -11 -16 -22 -37 -26 -45 -3 -8 -10 -22 -15 -30 -5 -8 -12 -22 -15
-30 -3 -8 -10 -22 -15 -30 -5 -8 -12 -22 -15 -30 -9 -22 -44 -93 -54 -110 -5
-8 -11 -22 -14 -30 -3 -8 -10 -23 -16 -32 -5 -10 -15 -26 -20 -35 -6 -10 -13
-25 -16 -33 -3 -8 -10 -22 -15 -30 -5 -8 -12 -22 -15 -30 -10 -27 -36 -85 -45
-100 -5 -8 -12 -22 -15 -30 -3 -8 -19 -42 -35 -75 -16 -33 -29 -65 -29 -71 0
-6 -7 -17 -15 -24 -8 -7 -15 -22 -15 -34 0 -11 -7 -30 -15 -40 -8 -11 -15 -27
-15 -37 0 -9 -7 -22 -15 -29 -8 -7 -15 -23 -15 -35 0 -12 -7 -28 -15 -35 -8
-7 -15 -23 -15 -35 0 -12 -7 -28 -15 -35 -8 -7 -15 -23 -15 -35 0 -12 -7 -28
-15 -35 -8 -7 -15 -21 -15 -30 0 -18 -6 -31 -44 -108 -9 -19 -16 -42 -16 -52
0 -9 -7 -23 -15 -30 -8 -7 -15 -22 -15 -34 -1 -11 -7 -32 -15 -46 -8 -14 -14
-36 -15 -50 0 -51 -48 -68 -68 -25 -6 14 -17 25 -23 25 -7 0 -20 7 -29 15 -21
19 -171 35 -231 25 -24 -4 -57 -15 -74 -24 -16 -9 -36 -16 -42 -16 -7 0 -13
-4 -13 -10 0 -5 -5 -10 -11 -10 -6 0 -21 -8 -34 -17 -12 -10 -33 -25 -45 -33
-12 -8 -28 -19 -34 -25 -6 -5 -41 -35 -76 -65 -36 -30 -71 -63 -78 -73 -8 -10
-22 -25 -31 -35 -10 -9 -39 -46 -66 -82 -27 -36 -53 -68 -58 -71 -10 -7 -21
-25 -57 -96 -13 -26 -34 -64 -45 -83 -11 -19 -31 -62 -44 -95 -12 -33 -29 -72
-37 -87 -8 -14 -14 -33 -14 -42 0 -8 -6 -30 -14 -48 -47 -111 -55 -237 -21
-330 28 -77 49 -90 149 -91 86 0 111 6 211 54 56 27 69 36 159 103 103 77 190
168 257 271 30 47 57 84 62 85 10 0 9 -48 -2 -54 -5 -3 -12 -23 -16 -43 -4
-21 -11 -44 -17 -50 -13 -16 -27 -119 -28 -203 -2 -137 18 -165 115 -165 81 1
121 21 245 120 67 53 287 287 314 334 5 9 29 40 53 69 24 29 43 56 43 60 0 4
14 22 30 41 17 18 30 38 30 43 0 5 5 14 10 21 49 58 60 75 60 92 0 41 -44 61
-55 26 -8 -25 -174 -275 -194 -291 -3 -3 -31 -36 -62 -75 -111 -138 -261 -273
-324 -290 -87 -24 -124 34 -94 150 5 22 13 60 18 85 5 25 14 59 19 75 6 17 18
57 27 90 9 33 23 75 31 93 8 18 14 43 14 56 0 13 6 29 14 35 8 6 16 26 19 44
5 36 23 89 43 129 8 14 14 35 14 45 0 11 7 28 15 39 8 10 15 28 15 39 0 11 7
29 15 39 8 11 15 29 15 40 0 12 7 30 15 40 8 11 15 29 15 40 0 12 7 30 15 40
8 11 15 30 15 42 0 12 7 27 15 34 8 7 15 22 15 34 0 11 7 30 15 40 8 11 15 30
15 42 0 12 7 27 15 34 8 7 15 19 15 27 0 8 6 27 14 41 7 15 22 45 31 67 10 22
22 47 27 55 4 8 11 22 14 30 11 29 37 85 46 100 4 8 11 22 14 30 3 8 10 22 15
30 5 8 12 22 15 30 3 8 10 22 15 30 5 8 12 22 15 30 16 42 77 160 85 165 5 4
9 14 9 24 0 10 7 24 15 31 8 7 15 20 15 30 0 10 7 23 15 30 8 7 15 20 15 30 0
10 7 20 15 24 8 3 15 11 15 18 0 13 31 76 60 123 10 17 30 53 44 82 15 28 31
55 36 58 6 3 10 14 10 25 0 10 7 20 15 24 8 3 15 14 15 25 0 11 5 23 11 26 5
4 14 17 20 28 5 12 13 30 19 40 5 9 15 25 20 35 6 9 15 26 20 37 6 11 19 34
30 50 11 17 24 39 30 50 6 11 19 34 30 50 11 17 23 37 27 45 3 8 18 33 32 55
36 56 49 77 61 100 6 11 19 34 30 50 11 17 23 37 27 45 3 8 9 17 12 20 13 11
51 70 51 79 0 5 3 11 8 13 8 4 52 65 52 73 0 3 5 11 10 18 6 7 33 44 60 82 27
39 56 78 64 88 9 9 16 21 16 26 0 5 4 11 9 13 5 2 32 35 62 73 68 90 218 245
291 301 80 62 103 62 123 -1 6 -19 7 -19 20 -2 17 24 8 121 -14 157 -38 61
-53 70 -117 70 -43 0 -65 -5 -74 -15z m-1932 -2939 c65 -34 106 -141 84 -222
-7 -24 -12 -54 -12 -67 0 -41 -47 -169 -109 -297 -21 -43 -27 -55 -47 -92 -62
-112 -215 -284 -329 -369 -66 -49 -108 -71 -171 -89 -88 -26 -177 38 -190 136
-7 56 6 169 26 224 7 19 19 53 27 75 8 22 21 53 29 68 8 16 14 34 14 42 0 7 7
18 15 25 8 7 15 23 15 36 0 12 5 26 11 29 5 4 15 17 20 28 5 12 18 36 29 52
11 17 23 37 27 45 21 47 166 212 234 265 44 35 117 85 124 85 4 0 21 6 38 14
18 8 39 17 47 19 30 11 92 7 118 -7z"/>
<path d="M5189 3183 c-42 -29 -66 -56 -89 -98 -22 -42 -37 -69 -52 -95 -4 -8
-11 -22 -14 -30 -3 -8 -12 -28 -19 -45 -7 -16 -21 -50 -30 -75 -9 -25 -23 -58
-31 -73 -8 -16 -14 -33 -14 -39 0 -14 -58 -107 -79 -129 -9 -9 -34 -37 -56
-64 -73 -87 -118 -140 -124 -145 -4 -3 -31 -34 -61 -69 -89 -104 -230 -245
-301 -300 -85 -65 -111 -67 -139 -9 -23 47 -25 84 -9 125 6 15 15 44 19 63 10
44 29 97 46 132 8 14 14 35 14 46 0 11 7 25 15 32 8 7 15 22 15 34 0 11 7 30
15 40 8 11 15 27 15 37 0 9 7 22 15 29 8 7 15 20 15 30 0 10 7 23 15 30 8 7
15 23 15 35 0 12 7 28 15 35 8 7 15 21 15 31 0 10 4 20 9 23 5 4 19 27 31 54
11 26 28 60 35 75 8 16 15 36 15 46 0 9 5 22 11 28 12 12 28 73 36 139 7 58
-17 94 -62 94 -32 0 -85 -22 -113 -47 -7 -7 -19 -13 -26 -13 -15 0 -86 -67
-86 -80 0 -14 12 -12 34 5 11 8 35 15 53 15 45 0 44 -25 -7 -120 -22 -41 -44
-85 -49 -97 -5 -11 -15 -24 -20 -28 -6 -3 -11 -17 -11 -29 0 -13 -7 -29 -15
-36 -8 -7 -15 -20 -15 -30 0 -10 -7 -23 -15 -30 -8 -7 -15 -23 -15 -35 0 -12
-7 -28 -15 -35 -8 -7 -15 -21 -15 -31 0 -10 -4 -20 -9 -23 -9 -6 -30 -48 -68
-136 -9 -19 -22 -48 -29 -63 -8 -16 -14 -35 -14 -42 0 -8 -6 -29 -14 -47 -23
-55 -39 -110 -48 -163 -29 -171 -10 -236 76 -265 111 -36 330 107 543 356 23
27 51 60 63 74 12 14 56 71 98 128 72 96 102 122 102 87 0 -8 -9 -32 -20 -52
-11 -21 -20 -45 -20 -54 0 -9 -7 -30 -15 -45 -8 -16 -15 -42 -15 -57 0 -16 -5
-38 -12 -50 -6 -12 -17 -78 -23 -145 -17 -172 -2 -220 75 -240 52 -13 110 3
185 52 71 46 312 286 393 391 136 177 222 312 222 347 0 40 -22 35 -45 -9 -18
-35 -63 -96 -187 -255 -26 -33 -83 -96 -127 -141 -43 -45 -92 -98 -107 -117
-16 -19 -32 -36 -36 -38 -4 -2 -27 -19 -51 -37 -25 -19 -63 -37 -85 -41 -36
-6 -41 -3 -62 26 -20 28 -22 40 -16 91 3 33 10 68 16 79 5 10 10 31 10 45 0
14 5 36 12 48 6 12 15 42 19 67 4 25 11 59 17 75 28 82 34 102 42 130 13 48
31 98 46 128 8 16 14 37 14 47 0 9 7 23 15 30 8 7 15 22 15 34 0 12 5 27 10
32 6 6 21 29 33 51 55 101 131 148 139 86 2 -14 8 -28 15 -30 19 -6 26 40 18
113 -5 51 -13 73 -39 107 -36 48 -68 57 -107 30z"/>
</g>
</svg>
