<svg xmlns:svg="http://www.w3.org/2000/svg" xmlns="http://www.w3.org/2000/svg" viewBox="0 0 1000 1000" version="1.1">
  <metadata id="metadata3213"/>
  <defs id="defs3211"/>
  <g id="g3195" transform="scale(3.90625,3.90625)" fill="#f35045">
    <path d="m160.44 208c2 2.89 3.22 2.67 4.78 2 1.56-0.67 81.56-27.67 84-28.56 2.44-0.89 1.67-1.67 0.89-2.89-0.78-1.22-27.44-37.44-28.78-39.56-1.33-2.11-2-1.67-4.11-1l-84.81 22.07c0 0 26.03 45.04 28.03 47.93l0 0z" id="path3197"/>
    <path d="m256 171.12 0-42.4c-9.54 2.54-21.61 5.76-26.37 7.02C236.81 145.36 248.05 160.4 256 171.12l0 0z" id="path3199"/>
    <path d="m229.55 83.52c-1.31 0.3-30.25 5.53-32.03 5.76-1.78 0.24-1.19 1.25-0.48 2.26L222.51 126.49c0 0 31.14-7.73 33.04-8.14 0.15-0.03 0.3-0.07 0.45-0.11l0-4.63c-5.66-7.18-21.08-26.72-22.41-28.54-1.6-2.2-2.73-1.84-4.04-1.55l0 0z" id="path3201"/>
    <path d="m47.46 28.63c6.27-0.28 6.84 1.14 9.59 5.22L126.22 149.5 213.19 128.66c-4.82-6.83-26.7-37.85-28.81-40.81-2.38-3.33 0.06-4.87 3.92-5.53 3.86-0.65 37.14-6.24 39.99-6.66 2.85-0.42 5.11-1.43 9.75 4.16 2.37 2.86 10.41 12.87 17.96 22.25L256 48C256 34.78 251.31 23.47 241.92 14.08 232.53 4.69 221.22 0 208 0L48 0C34.78 0 23.47 4.69 14.08 14.08 8.7 19.47 4.87 25.49 2.57 32.13 18.25 30.85 43.07 28.83 47.46 28.63l0 0z" id="path3203"/>
    <path d="m168.29 223.56c-7.33 2.22-10.62 3.32-15.4-3.34-3.58-4.99-22.93-39.84-32.41-57.02C102.52 167.9 69.66 176.48 60.19 178.75 50.94 180.98 46.99 175.43 45.47 172.01 44.4 169.62 17.29 111.16 0 73.65L0 208c0 13.22 4.69 24.53 14.08 33.92C23.47 251.31 34.78 256 48 256l160 0c13.22 0 24.53-4.69 33.92-14.08C251.31 232.53 256 221.22 256 208l0-15.78c-19.64 7.18-82.77 29.85-87.71 31.35l0 0z" id="path3205"/>
    <path d="m60.41 165.29c2.6-0.59 51.31-12.25 52.35-12.48 1.04-0.22 1.71-0.82 0.59-2.75-1.11-1.93-64.93-112.09-64.93-112.09C47.84 36.96 48 36.63 46.4 36.71 44.98 36.79 8.87 40.01 0.5 40.71 0.26 42.45 0.11 44.22 0.04 46.04c8.49 17.37 57.2 117.84 57.47 118.66 0.3 0.89 0.3 1.19 2.9 0.59l0 0z" id="path3207"/>
  </g>
</svg>
