<?xml version="1.0" ?><!DOCTYPE svg  PUBLIC '-//W3C//DTD SVG 1.1//EN'  'http://www.w3.org/Graphics/SVG/1.1/DTD/svg11.dtd'><svg id="Layer_1" style="enable-background:new 0 0 76 76;" version="1.1" viewBox="0 0 76 76" xml:space="preserve" xmlns="http://www.w3.org/2000/svg" xmlns:xlink="http://www.w3.org/1999/xlink"><style type="text/css">
	.st0{fill:#2A445D;}
	.st1{fill:#37546B;}
	.st2{fill:#213B51;}
</style><g><g><path class="st0" d="M23.2,23.8h-4.1l11.1,31.5l6.2-17.8l-4.8-13.7h-4.3v-3h19.1v3H42l11.1,31.5l4-11.4    c5.3-14.7-4.3-19.2-4.3-22.5s2.7-5.9,5.9-5.9c0.2,0,0.3,0,0.5,0C53.7,10.3,46.2,7,38,7c-10.7,0-20.2,5.5-25.8,13.8h11L23.2,23.8    L23.2,23.8z"/><path class="st0" d="M7,38c0,11.9,6.7,22.1,16.4,27.4l-14-39.5C7.9,29.6,7,33.7,7,38z"/><path class="st0" d="M64.9,22.7c0.4,2.6,0.3,5.5-0.4,8.5h0.1l-0.5,1.3l0,0c-0.3,1-0.6,2-1,2.9L52.6,65.3C62.3,60.1,69,49.8,69,38    C69,32.5,67.5,27.2,64.9,22.7z"/><path class="st0" d="M28.5,67.5c3,1,6.2,1.5,9.5,1.5c3.2,0,6.2-0.5,9.1-1.4L38.1,42L28.5,67.5z"/><path class="st0" d="M64.2,11.8C57.2,4.8,47.9,1,38,1S18.8,4.8,11.8,11.8S1,28.1,1,38c0,9.9,3.8,19.2,10.8,26.2S28.1,75,38,75    s19.2-3.8,26.2-10.8c7-7,10.8-16.3,10.8-26.2C75,28.1,71.2,18.8,64.2,11.8z M38,72.4C19,72.4,3.6,57,3.6,38S19,3.6,38,3.6    S72.4,19,72.4,38S57,72.4,38,72.4z"/></g></g></svg>