<svg id="Camada_1" data-name="Camada 1" xmlns="http://www.w3.org/2000/svg" viewBox="0 0 470.7 207.6"><defs><style>.cls-1{fill:#241f20;}.cls-2{fill:#93d629;}.cls-3{fill:#fa0;}.cls-4{fill:#ed3921;}.cls-5{fill:#f80;}.cls-6{fill:#f66418;}.cls-7{fill:#ffec00;}</style></defs><title>logo-pagseguro</title><path class="cls-1" d="M141.76,125.28c3.81-11.63,7.5-23.39,10.23-35.59,2.16,0,4.58.06,6.74.06l-.83,4.58c5.47-3.56,9-4.45,12.59-4.13,12.9,1.08,6,18.05-.83,22.12-4,2.42-9.41,3.43-16.91,2.42-.89,3.56-1.78,7.06-2.67,10.61-2.73-.06-5.53-.06-8.33-.06Zm25.55-18.75c3.88-3.24,3.88-9.22,1.21-10.87s-8.71-.32-10.68,4.51-2.16,7.82-3.18,10.49c2.16-.19,8.71-.89,12.65-4.13Z"/><path class="cls-1" d="M204.95,115.3c-2.42,0-4.58.06-7,.06l.44-5.28c-5,4.7-13.09,7.82-16.78,3.37-5.08-6.93-.25-16,5.47-19.7,6.36-4.13,14.81-3.88,23.2-4.07a86.12,86.12,0,0,0-5.34,25.62ZM190.39,98.4c-3.37,3.24-3.37,9.22-1,10.87s7.56.32,9.28-4.51,1.84-7.82,2.8-10.49c-2,.19-7.69.89-11.06,4.13Z"/><path class="cls-1" d="M207.68,125.47l1.21-6.48c5.4,1.78,10.17,2.61,13.67.83,2.73-1.4,4.83-4.32,5.91-9.73-5,4.7-13.09,7.82-16.78,3.37-5.08-6.93-.25-16,5.47-19.7,6.36-4.13,14.81-3.88,23.26-4.07-2.61,7.25-2.67,18.62-6.1,26.7a16,16,0,0,1-8.58,8.58c-5.4,2.29-12.08,2.1-18.05.51ZM220.52,98.4c-3.37,3.24-3.37,9.22-1,10.87s7.56.32,9.28-4.51,1.84-7.82,2.8-10.49c-2,.19-7.69.89-11.06,4.13Z"/><path class="cls-2" d="M291.07,125.47l1.21-6.48c5.4,1.78,10.17,2.61,13.67.83,2.73-1.4,4.83-4.32,5.91-9.73-5,4.7-13.09,7.82-16.78,3.37-5.08-6.93-.25-16,5.47-19.7,6.36-4.13,14.81-3.88,23.26-4.07-2.61,7.25-2.67,18.62-6.1,26.7a16,16,0,0,1-8.58,8.58c-5.34,2.29-12,2.1-18.05.51Zm61.91-11c3.24-8.26,5.47-18.81,7.06-24.66h5.85l-.19,5.28c2.54-3.56,7.18-5.47,11.95-5.28l-2.22,6.67c-5.85-.76-10,3.94-12.27,11.7a54.93,54.93,0,0,0-1.4,6.48l-8.77-.19ZM329.34,89.63l7.25.19c-1.27,5.4-3.37,10.55-4.64,16-1.91,6.55,5.91,5.85,9.28,1.84,3-5.28,4.32-11.63,6.29-18h7.25c-2.73,8.45-5.15,16.84-6.29,25.3l-6.86-.38c.06-1.33.13-2.67.19-4.07-7.31,6.67-19.32,8.45-17.8-2.86,1-6,3.37-12,5.34-18Zm-87.65,19.32c-.83,1.78-1.72,3.62-2.54,5.34,9.85,2.16,17.42.83,20.4-2.35,2.92-3.62,2.42-7.69-2.61-10.61-1.08-.76-4.13-2.29-4.07-4.07.13-4.07,6.29-3.11,10.11-1.91l1.27-5.53a26.82,26.82,0,0,0-8.71-.51,15.94,15.94,0,0,0-9.6,4.45,6.8,6.8,0,0,0-1.78,7c1,2.16,4,3.11,5.53,4,2.61,1.21,4.13,2.1,3.69,3.94-.38,1.53-2.22,2.8-5.59,2.22a20.86,20.86,0,0,1-6.1-2ZM303.91,98.4c-3.37,3.24-3.37,9.22-1,10.87s7.56.32,9.28-4.51S314,96.94,315,94.27c-2,.19-7.69.89-11.06,4.13Zm-11.57-4.51c-1.46-4.45-8.39-6.74-18.37-2.22-5.72,3-12.2,10.93-7.69,19.64,4.32,6.17,12.71,4.32,20.59,3.24.19-1.72.83-3.43,1-5.08-9.47,2.35-16.34,2.48-14.94-4.26C286.11,106.79,295.33,101.64,292.34,93.88Zm-10.61.57c3.31-.32,3.69,3.18,1.72,4.51-3.56,1.53-3.94-.57-9.22,1.46C275.44,97.76,277.53,95,281.73,94.46Zm121.4-.83c-3.75-5.34-12.78-5.66-20.21-.7s-10.36,13.35-6.61,18.69,12.78,5.66,20.21.7S406.88,99,403.13,93.63Zm-8.07,11.7c-2.42,4.26-6.61,6.67-9.34,5.34s-3.11-5.85-.7-10.11,6.61-6.67,9.34-5.34S397.48,101.07,395.06,105.33Z"/><path class="cls-1" d="M74,80.73a33.83,33.83,0,0,0-5.85,10,33.39,33.39,0,0,0,.57,25.36A34.25,34.25,0,0,0,100,137a32.62,32.62,0,0,0,13.35-2.8A34.44,34.44,0,0,0,124.09,127a34.12,34.12,0,0,0,7.75-36.23,34.65,34.65,0,0,0-5.85-10,33.18,33.18,0,0,0-8.71-7.37,32.37,32.37,0,0,0-16.72-4.77h-.89a34,34,0,0,0-17,4.77A32.2,32.2,0,0,0,74,80.73Z"/><path class="cls-1" d="M381.27,121.34a9.55,9.55,0,0,0-3.56.64,8.68,8.68,0,0,0-2.86,1.91,9.12,9.12,0,0,0-1.91,2.8,9,9,0,0,0-.64,3.5,8.9,8.9,0,0,0,.64,3.43,9.12,9.12,0,0,0,1.91,2.8,11,11,0,0,0,2.92,1.91,9.22,9.22,0,0,0,3.5.64,11,11,0,0,0,3.56-.64,8.68,8.68,0,0,0,2.86-1.91,7.8,7.8,0,0,0,1.91-2.86,8.9,8.9,0,0,0,.64-3.43,9,9,0,0,0-.64-3.5,7.57,7.57,0,0,0-1.91-2.8,9,9,0,0,0-2.92-1.91,10.34,10.34,0,0,0-3.5-.57Zm0,5.66a2.57,2.57,0,0,1,2.1.89,3.4,3.4,0,0,1,.83,2.35,3.07,3.07,0,0,1-.83,2.29,2.64,2.64,0,0,1-2.1.83,2.59,2.59,0,0,1-2-.83,3.07,3.07,0,0,1-.83-2.29,3.13,3.13,0,0,1,.83-2.35,2.37,2.37,0,0,1,2-.89Z"/><path class="cls-1" d="M369.51,133.8a19.62,19.62,0,0,0,.19-3v-9.15h-6v9.22a4.81,4.81,0,0,1-.38,2.22,1.39,1.39,0,0,1-1.33.64,1.29,1.29,0,0,1-1.27-.64,4.47,4.47,0,0,1-.38-2.22v-9.22h-6v9.15a13.25,13.25,0,0,0,.19,3,5.19,5.19,0,0,0,.7,1.91,6.48,6.48,0,0,0,2.8,2.42,8.85,8.85,0,0,0,4,.89,8.09,8.09,0,0,0,4-.89,6.31,6.31,0,0,0,2.73-2.42,5.93,5.93,0,0,0,.83-1.91Z"/><polygon class="cls-1" points="398.87 121.72 392.84 121.72 392.84 138.57 404.72 138.57 404.72 133.1 398.87 133.1 398.87 121.72"/><path class="cls-3" d="M122.76,81a27,27,0,0,0-16.46-9.73,27.35,27.35,0,0,0-18.81,3,27.07,27.07,0,0,0-7.69,6.36A26.26,26.26,0,0,0,75,89.5a26.73,26.73,0,0,0-1,10.49,23.4,23.4,0,0,1,3.88-6.29,24.33,24.33,0,0,1,8.45-6.36A27.45,27.45,0,0,1,96.7,85a26.43,26.43,0,0,1,10.61,2.16,24.17,24.17,0,0,1,9.15,6.48,27.14,27.14,0,0,1,2.61,3.31,11,11,0,0,1,3.31.38,11.73,11.73,0,0,1,6.29,4.07l.06-1.27a27.9,27.9,0,0,0-1-10,28.3,28.3,0,0,0-5-9.09Z"/><path class="cls-3" d="M73.24,113.27a23.1,23.1,0,0,0,2.61,7.63,24.09,24.09,0,0,0,5.08,6.36l1.08.89A32.36,32.36,0,0,0,94,133.36a20.07,20.07,0,0,0,8.26-.25,23.28,23.28,0,0,0,8.07-3.5,11,11,0,0,1-6-3.69l-.64-.7a30.05,30.05,0,0,1-21.8-5.72,30.54,30.54,0,0,1-8.2-9.53l-.51-1.08c0,1.4,0,2.92.13,4.39Z"/><path class="cls-4" d="M105.22,90.64a25.5,25.5,0,0,0-10-2,23.36,23.36,0,0,0-9.6,2.22,21.56,21.56,0,0,0-7.69,5.85,21.28,21.28,0,0,0-3.56,6.1,27.74,27.74,0,0,0,11.12,16.46,29.29,29.29,0,0,0,10.87,4.77,32.32,32.32,0,0,0,7.44.51,14.55,14.55,0,0,1-1.91-5.28,18,18,0,0,1,.13-6.1,19.78,19.78,0,0,1,2.8-7.25A23.29,23.29,0,0,1,110.3,100a21.08,21.08,0,0,1,4.51-2.48l-.83-.89a26.45,26.45,0,0,0-8.77-6Z"/><path class="cls-5" d="M129.18,106l-.83-1.33a29.27,29.27,0,0,1-6.1,10.87,23.28,23.28,0,0,1-8.58,13.28,12.74,12.74,0,0,0,4.58-.7,13.78,13.78,0,0,0,4.13-2.42,42.69,42.69,0,0,0,5-5.72l.25-.38a41.21,41.21,0,0,0,1.72-3.94,18.18,18.18,0,0,0,.83-3.94,13.93,13.93,0,0,0-.19-3.69,17.52,17.52,0,0,0-.76-2Z"/><path class="cls-6" d="M70.13,90.2a36.1,36.1,0,0,0-2,10.3,33.9,33.9,0,0,0,2.61,13.6A31.85,31.85,0,0,0,74.07,120a32.25,32.25,0,0,0,4.32,5,24,24,0,0,1-6.17-13.35,26.51,26.51,0,0,1-.06-5,29.23,29.23,0,0,1-1.78-9.79,32.27,32.27,0,0,1,1.53-9.34A39.06,39.06,0,0,1,75,81.43a32.2,32.2,0,0,0-4.83,8.77Z"/><path class="cls-6" d="M131.4,92.1a33.8,33.8,0,0,0-3.24-7.44,28.55,28.55,0,0,0-5-6.17A26.91,26.91,0,0,0,117,73.67a31.92,31.92,0,0,1,5.4,4.77A27.73,27.73,0,0,1,128,87.78a27.28,27.28,0,0,1,1.4,10.87,33.88,33.88,0,0,1-.44,3.43,15.78,15.78,0,0,1,1.27,2.54,16.81,16.81,0,0,1,.64,8.14,35.14,35.14,0,0,0,2-12.08,36.68,36.68,0,0,0-1.46-8.58Z"/><path class="cls-6" d="M120.79,100.62a20.06,20.06,0,0,1,1.72,6,27.68,27.68,0,0,1,.19,6l-.38,2a25.65,25.65,0,0,0,5.53-10.68,17.18,17.18,0,0,0-2-1.78,8.46,8.46,0,0,0-5.08-1.53Z"/><path class="cls-4" d="M115.45,124.27a22.73,22.73,0,0,0,2.61-4.89,30.93,30.93,0,0,1-11.82,5.28,8.53,8.53,0,0,0,2.35,2.42,9.58,9.58,0,0,0,3.05,1.4,24,24,0,0,0,3.81-4.2Z"/><path class="cls-4" d="M97.4,133.86l3.88.19a32,32,0,0,0,9.53-1.72,33,33,0,0,0,8.07-4,12.74,12.74,0,0,1-4.83,1.33,7.82,7.82,0,0,1-1.78.13,25.75,25.75,0,0,1-14.87,4.07Z"/><path class="cls-7" d="M118.76,107.87a23.37,23.37,0,0,0-2.54-6.55,15.92,15.92,0,0,0-5.53,3.11,21.25,21.25,0,0,0-4.51,5.53,18.39,18.39,0,0,0-1.78,6.36A13.15,13.15,0,0,0,105,122a8.54,8.54,0,0,0,.83,1.72,22,22,0,0,0,6.36-1.78,23.84,23.84,0,0,0,6-3.43l.19-.13a29.87,29.87,0,0,0,.83-4,28.86,28.86,0,0,0-.44-6.55Z"/></svg>